# xmcd
#
# Track frame offsets: 
#        150
#        22590
#        40469
#        56496
#        71035
#        93239
#        108716
#        131432
#        156838
#        180021
#        204226
#        219972
#        243964
#        265637
#        284361
#        306108
#        329818
#
# Disc length: 4803 seconds
#
# Revision: 1
# Processed by: cddbd v1.5.2PL0 Copyright (c) Steve Scherf et al.
# Submitted via: ExactAudioCopy v0.95a5
#
DISCID=e612c111
DTITLE=Various Artist - Still Got the Blues   CD-2  
DYEAR=2003
DGENRE=Blues
TTITLE0=Lord Have Mercy on Me - ROBERT WARD
TTITLE1=All Those Heroes - JOHN MAYALL
TTITLE2=No Money At All - BRENDAN CROKER
TTITLE3=Look Now Baby - JAMES GLASS
TTITLE4=Down in Mississippi - POPS STAPLES
TTITLE5=Some Kind of Wonderfull - BUDDY GUY
TTITLE6=Iceman - ALBERT COLLINS
TTITLE7=Hole in My Heart - LARRY McCRAY
TTITLE8=Third Degree - BLUE LOU&The HEADHUNTERS
TTITLE9=You Keep Sayin' That You're Leaving - JOHNNY WINTER
TTITLE10=Trouble Blues - JOHN HAMMOND
TTITLE11=One in a Million - JOHN MAYALL
TTITLE12=Glamour Girl - DUKE ROBILLARD
TTITLE13=Shokin' Kind - WALTER WOLFMAN WASHINGTON
TTITLE14=I Miss You So - HI TIDE HARRIS
TTITLE15=Broken Down - ERIC CLAPTON
TTITLE16=Hey Baby! - BLUEBONE
EXTD=
EXTT0=
EXTT1=
EXTT2=
EXTT3=
EXTT4=
EXTT5=
EXTT6=
EXTT7=
EXTT8=
EXTT9=
EXTT10=
EXTT11=
EXTT12=
EXTT13=
EXTT14=
EXTT15=
EXTT16=
PLAYORDER=
